<svg xmlns="http://www.w3.org/2000/svg" viewBox="0 0 64 64" role="img" aria-label="Soccer ball logo iteration three">
  <rect width="64" height="64" rx="15" fill="#2a7e3b"/>
  <circle cx="32" cy="32" r="20" fill="#fff" stroke="#203c25" stroke-width="2"/>
  <path d="m32 20 7 5-3 8h-8l-3-8Z" fill="#203c25"/>
  <path d="m25 25-7-2m21 2 7-2M28 33l-6 7m14-7 6 7m-20 0 2 8m18-8-2 8" fill="none" stroke="#203c25" stroke-width="2.5" stroke-linecap="round" stroke-linejoin="round"/>
  <path d="m17 23 5-1-2-5a20 20 0 0 0-3 6Zm30 0-5-1 2-5a20 20 0 0 1 3 6ZM20 46l4 2-5 3a20 20 0 0 1-4-6Zm24 0-4 2 5 3a20 20 0 0 0 4-6Z" fill="#203c25"/>
</svg>
