<svg xmlns="http://www.w3.org/2000/svg" viewBox="0 0 64 64" role="img" aria-label="Coach Companion soccer ball logo">
  <rect width="64" height="64" rx="15" fill="#2a7e3b"/>
  <circle cx="32" cy="32" r="20" fill="#fff"/>
  <path d="m32 19.5 7.5 5.5-3 8.5h-9L24.5 25Z" fill="#203c25"/>
  <path d="m24.5 25-7-2.5m22 2.5 7-2.5m-19 11-6 7m15-7 6 7m-21 0 2 8m19-8-2 8" fill="none" stroke="#203c25" stroke-width="2.5" stroke-linecap="round" stroke-linejoin="round"/>
  <path d="M16.4 22.8 22 21l-2.2-4.5a20 20 0 0 0-3.4 6.3Zm31.2 0L42 21l2.2-4.5a20 20 0 0 1 3.4 6.3ZM19.1 47.7l4.4 1.5-1.2 3.6a20 20 0 0 1-6.8-7.2Zm25.8 0-4.4 1.5 1.2 3.6a20 20 0 0 0 6.8-7.2Z" fill="#203c25"/>
</svg>
