<svg xmlns="http://www.w3.org/2000/svg" viewBox="0 0 64 64" role="img" aria-label="Coach Companion soccer ball logo">
  <defs>
    <clipPath id="ball"><circle cx="32" cy="32" r="20"/></clipPath>
  </defs>
  <rect width="64" height="64" rx="15" fill="#2a7e3b"/>
  <circle cx="32" cy="32" r="20" fill="#fff"/>
  <g clip-path="url(#ball)" fill="#203c25">
    <path d="m32 20.5 10 7.3-3.8 11.7H25.8L22 27.8Z"/>
    <path d="m22 12 10 2 10-2 2 6-7 5-5-2.5-5 2.5-7-5Z"/>
    <path d="m48 18 7 7-3 10-6-1-4-6.2 3-7.8Z"/>
    <path d="m52 41-5 10-11 3-2-6 4.2-8.5 7.8-5.5Z"/>
    <path d="m28 48-2 6-11-3-5-10 6-7 7.8 5.5Z"/>
    <path d="m16 34-6 7-3-10 2-8 7-5 3 2 3 7.8Z"/>
  </g>
</svg>
